[17:54:40.113] [run01] Starting serial run 1
[17:55:30.069] [run01] CPU mismatch (got 'Intel(R) Xeon(R) Platinum 8124M CPU @ 3.00GHz', want 'Intel(R) Xeon(R) Platinum 8275CL CPU @ 3.00GHz') — terminating & retrying (attempt 1)
[17:56:19.653] [run01] CPU OK: Intel(R) Xeon(R) Platinum 8275CL CPU @ 3.00GHz
[18:02:59.220] [run01] Run 1 OK — Total: 498.51s  (provision: 99.3s  s3_dl: 0.9s  encode: 398.2s)
[18:03:00.189] [run01] Instance terminated.
[18:03:00.191] [run02] Starting serial run 2
[18:03:49.497] [run02] CPU OK: Intel(R) Xeon(R) Platinum 8275CL CPU @ 3.00GHz
[18:09:05.083] [run02] Run 2 OK — Total: 364.50s  (provision: 49.3s  s3_dl: 1.0s  encode: 314.2s)
[18:09:06.127] [run02] Instance terminated.
[18:09:06.131] [run03] Starting serial run 3
[18:09:55.426] [run03] CPU OK: Intel(R) Xeon(R) Platinum 8275CL CPU @ 3.00GHz
[18:16:18.118] [run03] Run 3 OK — Total: 431.56s  (provision: 49.3s  s3_dl: 1.5s  encode: 380.8s)
[18:16:19.111] [run03] Instance terminated.
[18:16:19.113] [run04] Starting serial run 4
[18:17:08.587] [run04] CPU OK: Intel(R) Xeon(R) Platinum 8275CL CPU @ 3.00GHz
[18:22:58.476] [run04] Run 4 OK — Total: 398.97s  (provision: 49.4s  s3_dl: 1.0s  encode: 348.5s)
[18:22:59.486] [run04] Instance terminated.
[18:22:59.488] [run05] Starting serial run 5
[18:23:49.003] [run05] CPU OK: Intel(R) Xeon(R) Platinum 8275CL CPU @ 3.00GHz
[18:26:14.819] [run05] Run 5 ERROR: ffmpeg failed: .75x    frame= 3719 fps= 26 q=0.0 size=   38400kB time=00:04:07.97 bitrate=1268.5kbits/s speed=1.75x    frame= 3725 fps= 26 q=0.0 size=   38400kB time=00:04:08.36 bitrate=1266.6kbits/s speed=1.74x    frame= 3731 fps= 26 q=0.0 size=   38656kB time=00:04:08.76 bitrate=1273.0kbits/s speed=1.74x    
[18:26:15.775] [run05] Instance terminated.
[18:26:15.782] [run06] Starting serial run 6
[18:27:05.253] [run06] CPU OK: Intel(R) Xeon(R) Platinum 8275CL CPU @ 3.00GHz
[18:32:56.613] [run06] Run 6 OK — Total: 400.42s  (provision: 49.4s  s3_dl: 1.0s  encode: 350.0s)
[18:32:57.539] [run06] Instance terminated.
[18:32:57.541] [run07] Starting serial run 7
[18:33:46.928] [run07] CPU OK: Intel(R) Xeon(R) Platinum 8275CL CPU @ 3.00GHz
[18:39:38.647] [run07] Run 7 OK — Total: 400.70s  (provision: 49.4s  s3_dl: 1.3s  encode: 350.0s)
[18:39:39.611] [run07] Instance terminated.
[18:39:39.613] [run08] Starting serial run 8
[18:40:29.025] [run08] CPU OK: Intel(R) Xeon(R) Platinum 8275CL CPU @ 3.00GHz
[18:46:39.884] [run08] Run 8 OK — Total: 419.90s  (provision: 49.4s  s3_dl: 1.1s  encode: 369.4s)
[18:46:40.829] [run08] Instance terminated.
[18:46:40.831] [run09] Starting serial run 9
[18:47:30.225] [run09] CPU OK: Intel(R) Xeon(R) Platinum 8275CL CPU @ 3.00GHz
